<?xml version="1.0" encoding="UTF-8"?>
<!DOCTYPE svg PUBLIC "-//W3C//DTD SVG 1.1//EN" "http://www.w3.org/Graphics/SVG/1.1/DTD/svg11.dtd">
<svg xmlns="http://www.w3.org/2000/svg" version="1.1" viewBox="0 0 500 500" style="shape-rendering:geometricPrecision; text-rendering:geometricPrecision; image-rendering:optimizeQuality; fill-rule:evenodd; clip-rule:evenodd" xmlns:xlink="http://www.w3.org/1999/xlink">
<g><path style="opacity:1" fill="#0dc0df" d="M -0.5,-0.5 C 166.167,-0.5 332.833,-0.5 499.5,-0.5C 499.5,166.167 499.5,332.833 499.5,499.5C 332.833,499.5 166.167,499.5 -0.5,499.5C -0.5,332.833 -0.5,166.167 -0.5,-0.5 Z"/></g>
<g><path style="opacity:1" fill="#fefefe" d="M 235.5,129.5 C 271.56,129.702 307.227,133.536 342.5,141C 401.143,154.997 428.31,192.164 424,252.5C 425.392,289.584 409.559,316.084 376.5,332C 367.389,335.401 358.223,338.567 349,341.5C 345.715,355.64 341.048,369.306 335,382.5C 331.323,390.025 325.49,394.691 317.5,396.5C 316.95,383.294 313.45,370.96 307,359.5C 299.236,352.05 289.903,348.717 279,349.5C 258.206,352.271 237.373,354.771 216.5,357C 187.961,360.314 160.294,356.981 133.5,347C 102.827,331.966 84.6605,307.466 79,273.5C 72.5938,236.735 81.2605,204.069 105,175.5C 121.049,160.717 139.549,149.883 160.5,143C 185.058,135.242 210.058,130.742 235.5,129.5 Z"/></g>
<g><path style="opacity:1" fill="#047b40" d="M 194.5,254.5 C 190.986,236.317 179.986,227.317 161.5,227.5C 152.218,199.57 160.552,178.736 186.5,165C 213.206,157.34 233.373,165.507 247,189.5C 254.591,210.712 250.258,229.045 234,244.5C 233.375,254.836 232.708,265.169 232,275.5C 224.121,268.62 215.955,262.12 207.5,256C 203.137,255.631 198.804,255.131 194.5,254.5 Z"/></g>
<g><path style="opacity:1" fill="#f7fbf9" d="M 177.5,199.5 C 186.33,198.162 189.83,201.829 188,210.5C 185.794,214.125 182.627,215.292 178.5,214C 172.205,209.663 171.872,204.829 177.5,199.5 Z"/></g>
<g><path style="opacity:1" fill="#fafcfb" d="M 200.5,199.5 C 208.656,198.821 212.156,202.488 211,210.5C 206.959,215.313 202.625,215.646 198,211.5C 195.511,206.757 196.345,202.757 200.5,199.5 Z"/></g>
<g><path style="opacity:1" fill="#fafcfb" d="M 223.5,199.5 C 231.161,198.663 234.661,201.996 234,209.5C 229.748,215.653 225.081,215.986 220,210.5C 218.662,205.96 219.829,202.293 223.5,199.5 Z"/></g>
<g><path style="opacity:1" fill="#17c0df" d="M 161.5,227.5 C 179.986,227.317 190.986,236.317 194.5,254.5C 195.004,264.827 191.504,273.494 184,280.5C 183.554,287.189 182.887,293.856 182,300.5C 176.544,296.713 171.377,292.546 166.5,288C 152.479,288.077 142.313,281.911 136,269.5C 130.034,246.399 138.534,232.399 161.5,227.5 Z"/></g>
<g><path style="opacity:1" fill="#f5fcfd" d="M 147.5,251.5 C 154.836,252.396 156.17,255.563 151.5,261C 146.667,261.5 144.5,259.333 145,254.5C 145.698,253.309 146.531,252.309 147.5,251.5 Z"/></g>
<g><path style="opacity:1" fill="#f8fdfe" d="M 162.5,251.5 C 168.023,251.562 169.856,254.229 168,259.5C 163.626,262.543 160.793,261.543 159.5,256.5C 159.323,254.032 160.323,252.365 162.5,251.5 Z"/></g>
<g><path style="opacity:1" fill="#fafdfe" d="M 177.5,251.5 C 182.722,251.945 184.389,254.611 182.5,259.5C 180.044,262.08 177.544,262.08 175,259.5C 173.837,256.029 174.67,253.362 177.5,251.5 Z"/></g>
<g><path style="opacity:1" fill="#32c5e1" d="M 299.5,252.5 C 304.993,251.178 307.493,253.178 307,258.5C 305.192,260.396 303.025,260.896 300.5,260C 298.285,257.758 297.952,255.258 299.5,252.5 Z"/></g>
<g><path style="opacity:1" fill="#2cc4e1" d="M 250.5,253.5 C 255.599,253.175 260.599,253.675 265.5,255C 272.694,259.84 273.361,265.507 267.5,272C 263.078,274.104 258.412,274.937 253.5,274.5C 253.308,277.601 252.642,280.601 251.5,283.5C 246.886,285.65 244.219,284.317 243.5,279.5C 244.561,271.828 244.728,264.161 244,256.5C 246.166,255.269 248.333,254.269 250.5,253.5 Z"/></g>
<g><path style="opacity:1" fill="#f6fcfd" d="M 252.5,257.5 C 262.305,257.615 264.639,261.781 259.5,270C 257.527,270.495 255.527,270.662 253.5,270.5C 253.628,266.119 253.295,261.785 252.5,257.5 Z"/></g>
<g><path style="opacity:1" fill="#2fc4e1" d="M 278.5,262.5 C 283.267,262.191 287.934,262.691 292.5,264C 294.155,265.444 294.822,267.278 294.5,269.5C 290.152,269.401 286.152,268.401 282.5,266.5C 282.5,267.5 282.5,268.5 282.5,269.5C 287.335,269.738 291.501,271.405 295,274.5C 296.458,278.781 295.292,281.947 291.5,284C 285.387,286.339 279.554,285.839 274,282.5C 272.92,279.763 273.754,278.096 276.5,277.5C 279.167,278.833 281.833,280.167 284.5,281.5C 286,281.547 287,280.881 287.5,279.5C 283.364,277.559 279.197,275.559 275,273.5C 272.35,268.562 273.517,264.895 278.5,262.5 Z"/></g>
<g><path style="opacity:1" fill="#23c2e0" d="M 300.5,262.5 C 302.792,262.244 304.959,262.577 307,263.5C 307.667,270.167 307.667,276.833 307,283.5C 305.135,285.673 302.969,286.007 300.5,284.5C 299.204,277.11 299.204,269.776 300.5,262.5 Z"/></g>
<g><path style="opacity:1" fill="#31c4e1" d="M 318.5,262.5 C 322.936,262.21 327.27,262.71 331.5,264C 334.58,265.711 335.746,268.211 335,271.5C 333.267,273.602 331.267,273.935 329,272.5C 328.163,270.649 327.329,268.816 326.5,267C 321.862,265.836 319.862,267.67 320.5,272.5C 320.119,277.106 322.119,279.773 326.5,280.5C 329.011,279.345 331.678,278.678 334.5,278.5C 333.985,282.453 331.652,284.619 327.5,285C 318.016,286.603 312.35,282.77 310.5,273.5C 310.997,268.145 313.664,264.478 318.5,262.5 Z"/></g>
<g><path style="opacity:1" fill="#2ec4e1" d="M 345.5,262.5 C 349.182,262.335 352.848,262.501 356.5,263C 363.8,266.438 365.967,271.938 363,279.5C 355.619,287.033 347.952,287.366 340,280.5C 335.791,272.598 337.624,266.598 345.5,262.5 Z"/></g>
<g><path style="opacity:1" fill="#fbfdfe" d="M 348.5,266.5 C 351.547,265.855 353.713,266.855 355,269.5C 355.667,272.5 355.667,275.5 355,278.5C 351.852,282.68 349.186,282.347 347,277.5C 346.112,273.598 346.612,269.931 348.5,266.5 Z"/></g>
<g><path style="opacity:1" fill="#127f46" d="M 197.5,290.5 C 199.582,290.472 201.416,291.139 203,292.5C 203.172,296.487 203.006,300.487 202.5,304.5C 202.329,308.98 203.329,313.147 205.5,317C 210.91,319.92 214.41,318.42 216,312.5C 216.378,305.811 216.378,299.144 216,292.5C 218.747,289.966 221.413,289.966 224,292.5C 225.527,298.415 225.861,304.415 225,310.5C 224.228,316.235 221.062,319.735 215.5,321C 200.56,323.895 193.56,317.728 194.5,302.5C 193.947,297.953 194.947,293.953 197.5,290.5 Z"/></g>
<g><path style="opacity:1" fill="#158047" d="M 243.5,290.5 C 245.903,290.393 247.736,291.393 249,293.5C 249.901,301.579 249.568,309.579 248,317.5C 246.833,318.667 245.667,319.833 244.5,321C 240.167,321.667 235.833,321.667 231.5,321C 227.787,319.309 226.621,316.475 228,312.5C 232.913,310.398 235.58,312.065 236,317.5C 237,318.833 238,318.833 239,317.5C 240.24,309.243 240.907,300.909 241,292.5C 241.995,291.934 242.828,291.267 243.5,290.5 Z"/></g>
<g><path style="opacity:1" fill="#117e45" d="M 266.5,290.5 C 267.552,290.351 268.552,290.517 269.5,291C 276.564,298.79 281.564,307.79 284.5,318C 282.842,321.297 280.175,322.297 276.5,321C 275.44,318.263 274.606,315.43 274,312.5C 270,311.167 266,311.167 262,312.5C 261.163,315.365 260.33,318.198 259.5,321C 256.653,321.944 254.153,321.444 252,319.5C 254.153,308.528 258.986,298.861 266.5,290.5 Z"/></g>
<g><path style="opacity:1" fill="#e6f2ec" d="M 267.5,296.5 C 269.391,299.957 271.058,303.624 272.5,307.5C 269.572,308.484 266.572,308.817 263.5,308.5C 264.238,304.285 265.572,300.285 267.5,296.5 Z"/></g>
</svg>
